<mxfile host="app.diagrams.net" modified="2022-01-08T03:40:04.945Z" agent="5.0 (Linux; Android 8.1.0; SM-T835) AppleWebKit/537.36 (KHTML, like Gecko) Chrome/96.0.4664.104 Safari/537.36" etag="T7T3X7Qe2q9q-huN8-Sh" version="16.2.4" type="github">
  <diagram id="AGtdkSsr8AAKnYsizctA" name="Page-1">
    <mxGraphModel dx="678" dy="1782" grid="0" gridSize="10" guides="1" tooltips="1" connect="1" arrows="1" fold="1" page="0" pageScale="1" pageWidth="827" pageHeight="1169" math="0" shadow="0">
      <root>
        <mxCell id="0" />
        <mxCell id="1" parent="0" />
        <mxCell id="XSKCjuAAVVbdh4YBtUhO-1" value="Publisher" style="rounded=0;whiteSpace=wrap;html=1;sketch=1;hachureGap=4;fontFamily=Architects Daughter;fontSource=https%3A%2F%2Ffonts.googleapis.com%2Fcss%3Ffamily%3DArchitects%2BDaughter;fontSize=20;" parent="1" vertex="1">
          <mxGeometry x="66" y="-483.5" width="160" height="80" as="geometry" />
        </mxCell>
        <mxCell id="XSKCjuAAVVbdh4YBtUhO-3" value="&lt;font style=&quot;font-size: 32px&quot; color=&quot;#ccffcc&quot;&gt;&lt;b&gt;Message&lt;br&gt;Broker&amp;nbsp;&lt;/b&gt;&lt;/font&gt;" style="ellipse;whiteSpace=wrap;html=1;sketch=1;hachureGap=4;fontFamily=Architects Daughter;fontSource=https%3A%2F%2Ffonts.googleapis.com%2Fcss%3Ffamily%3DArchitects%2BDaughter;fontSize=20;" parent="1" vertex="1">
          <mxGeometry x="330" y="-505" width="183" height="123" as="geometry" />
        </mxCell>
        <mxCell id="XSKCjuAAVVbdh4YBtUhO-4" value="" style="edgeStyle=none;orthogonalLoop=1;jettySize=auto;html=1;shape=flexArrow;rounded=1;startSize=8;endSize=8;sketch=1;hachureGap=4;fontFamily=Architects Daughter;fontSource=https%3A%2F%2Ffonts.googleapis.com%2Fcss%3Ffamily%3DArchitects%2BDaughter;fontSize=16;fontColor=#01051C;endArrow=open;sourcePerimeterSpacing=8;targetPerimeterSpacing=8;curved=1;exitX=1;exitY=0.5;exitDx=0;exitDy=0;entryX=0;entryY=0.5;entryDx=0;entryDy=0;" parent="1" source="XSKCjuAAVVbdh4YBtUhO-1" target="XSKCjuAAVVbdh4YBtUhO-3" edge="1">
          <mxGeometry width="140" relative="1" as="geometry">
            <mxPoint x="129" y="137" as="sourcePoint" />
            <mxPoint x="269" y="137" as="targetPoint" />
            <Array as="points" />
          </mxGeometry>
        </mxCell>
        <mxCell id="G6cXF55-muEAQXU2s7zq-1" value="Subscriber" style="rounded=0;whiteSpace=wrap;html=1;sketch=1;hachureGap=4;fontFamily=Architects Daughter;fontSource=https%3A%2F%2Ffonts.googleapis.com%2Fcss%3Ffamily%3DArchitects%2BDaughter;fontSize=20;" vertex="1" parent="1">
          <mxGeometry x="230" y="-161" width="160" height="80" as="geometry" />
        </mxCell>
        <mxCell id="G6cXF55-muEAQXU2s7zq-2" value="" style="edgeStyle=none;orthogonalLoop=1;jettySize=auto;html=1;rounded=0;sketch=1;hachureGap=4;fontFamily=Architects Daughter;fontSource=https%3A%2F%2Ffonts.googleapis.com%2Fcss%3Ffamily%3DArchitects%2BDaughter;fontSize=16;endArrow=open;startSize=14;endSize=14;sourcePerimeterSpacing=8;targetPerimeterSpacing=8;curved=1;entryX=0.5;entryY=1;entryDx=0;entryDy=0;exitX=0.5;exitY=0;exitDx=0;exitDy=0;" edge="1" parent="1" source="G6cXF55-muEAQXU2s7zq-1" target="XSKCjuAAVVbdh4YBtUhO-3">
          <mxGeometry width="120" relative="1" as="geometry">
            <mxPoint x="367" y="-236" as="sourcePoint" />
            <mxPoint x="349" y="-149" as="targetPoint" />
            <Array as="points" />
          </mxGeometry>
        </mxCell>
      </root>
    </mxGraphModel>
  </diagram>
</mxfile>
